<svg width="64" height="16" viewBox="0 0 64 16" fill="none" xmlns="http://www.w3.org/2000/svg">
<path d="M4.00478 9.00765L3.63147 2.66139L4.7514 2.28809H7.73787L8.85779 2.66139L8.48448 8.72406L10.2273 10.1276L12.8386 10.8742V13.114H11.471H8.64356L6.53169 12.637V13.114H4.00478L3.63147 11.2475L4.00478 9.00765Z" stroke="white" stroke-width="1.33333"/>
<path d="M36.0048 9.00765L35.6315 2.66139L36.7514 2.28809H39.7379L40.8578 2.66139L40.4845 8.72406L42.2273 10.1276L44.8386 10.8742V13.114H43.471H40.6436L38.5317 12.637V13.114H36.0048L35.6315 11.2475L36.0048 9.00765Z" stroke="white" stroke-width="1.33333"/>
<path d="M24 4.8891V11.1113" stroke="white" stroke-width="0.777778"/>
<path d="M20.8889 8.00009L27.1111 8.00009" stroke="white" stroke-width="0.777778"/>
<path d="M52.0048 9.00765L51.6315 2.66139L52.7514 2.28809H55.7379L56.8578 2.66139L56.4845 8.72406L58.2273 10.1276L60.8386 10.8742V13.114H59.471H56.6436L54.5317 12.637V13.114H52.0048L51.6315 11.2475L52.0048 9.00765Z" stroke="white" stroke-width="1.33333"/>
</svg>
