<svg width="169" height="42" viewBox="0 0 169 42" fill="none" xmlns="http://www.w3.org/2000/svg">
<path d="M10.6474 23.6452L9.66748 6.98628L12.6073 6.00635H20.4468L23.3866 6.98628L22.4066 22.9008L26.9816 26.585L33.8363 28.5449V34.4245H30.2461H22.8242L17.2806 33.1721V34.4245H10.6474L9.66748 29.5248L10.6474 23.6452Z" stroke="white" stroke-width="3.5"/>
<path d="M10.5576 23.6452L9.57764 6.98628L12.5174 6.00635H20.3569L23.2967 6.98628L22.3168 22.9008L26.8917 26.585L33.7465 28.5449V34.4245H30.1563H22.7344L17.1907 33.1721V34.4245H10.5576L9.57764 29.5248L10.5576 23.6452Z" stroke="white" stroke-width="3.5"/>
<path d="M6.16992 20.125L14.9199 29.75L34.1699 11.375" stroke="#333333" stroke-width="3.5"/>
<path d="M87.4677 23.6452L86.4878 6.98628L89.4276 6.00635H97.2671L100.207 6.98628L99.227 22.9008L103.802 26.585L110.657 28.5449V34.4245H107.066H99.6445L94.1009 33.1721V34.4245H87.4677L86.4878 29.5248L87.4677 23.6452Z" stroke="white" stroke-width="3.5"/>
<path d="M59.2885 18.1113V30.5558" stroke="white" stroke-width="1.55556"/>
<path d="M53.0662 24.3335L65.5106 24.3335" stroke="white" stroke-width="1.55556"/>
<path d="M137.468 23.6452L136.488 6.98628L139.428 6.00635H147.267L150.207 6.98628L149.227 22.9008L153.802 26.585L160.657 28.5449V34.4245H157.066H149.645L144.101 33.1721V34.4245H137.468L136.488 29.5248L137.468 23.6452Z" stroke="white" stroke-width="3.5"/>
</svg>
