<svg width="192" height="48" viewBox="0 0 192 48" fill="none" xmlns="http://www.w3.org/2000/svg">
<path d="M12.0144 27.023L10.8945 7.98425L14.2542 6.86432H23.2136L26.5734 7.98425L25.4535 26.1722L30.682 30.3828L38.516 32.6226V39.3422H34.4129H25.9307L19.5951 37.9109V39.3422H12.0144L10.8945 33.7425L12.0144 27.023Z" stroke="#DE3137" stroke-width="4"/>
<path d="M108.014 27.023L106.894 7.98425L110.254 6.86432H119.214L122.573 7.98425L121.453 26.1722L126.682 30.3828L134.516 32.6226V39.3422H130.413H121.931L115.595 37.9109V39.3422H108.014L106.894 33.7425L108.014 27.023Z" stroke="#DE3137" stroke-width="4"/>
<path d="M72 14.6669V33.3335" stroke="#DE3137" stroke-width="2.33333"/>
<path d="M62.6667 24.0001L81.3333 24.0001" stroke="#DE3137" stroke-width="2.33333"/>
<path d="M156.014 27.023L154.894 7.98425L158.254 6.86432H167.214L170.573 7.98425L169.453 26.1722L174.682 30.3828L182.516 32.6226V39.3422H178.413H169.931L163.595 37.9109V39.3422H156.014L154.894 33.7425L156.014 27.023Z" stroke="#DE3137" stroke-width="4"/>
</svg>
