<svg width="170" height="42" viewBox="0 0 170 42" fill="none" xmlns="http://www.w3.org/2000/svg">
<path d="M11.1025 23.6452L10.1226 6.98628L13.0624 6.00635H20.9019L23.8417 6.98628L22.8617 22.9008L27.4367 26.585L34.2914 28.5449V34.4245H30.7012H23.2793L17.7356 33.1721V34.4245H11.1025L10.1226 29.5248L11.1025 23.6452Z" stroke="white" stroke-width="3.5"/>
<path d="M11.0127 23.6452L10.0327 6.98628L12.9725 6.00635H20.812L23.7518 6.98628L22.7719 22.9008L27.3468 26.585L34.2016 28.5449V34.4245H30.6114H23.1894L17.6458 33.1721V34.4245H11.0127L10.0327 29.5248L11.0127 23.6452Z" stroke="white" stroke-width="3.5"/>
<path d="M6.625 20.125L15.375 29.75L34.625 11.375" stroke="#333333" stroke-width="3.5"/>
<path d="M87.9228 23.6452L86.9429 6.98628L89.8827 6.00635H97.7222L100.662 6.98628L99.682 22.9008L104.257 26.585L111.112 28.5449V34.4245H107.522H100.1L94.5559 33.1721V34.4245H87.9228L86.9429 29.5248L87.9228 23.6452Z" stroke="white" stroke-width="3.5"/>
<path d="M59.7434 18.1113V30.5558" stroke="white" stroke-width="1.55556"/>
<path d="M53.5212 24.3335L65.9657 24.3335" stroke="white" stroke-width="1.55556"/>
<path d="M137.923 23.6452L136.943 6.98628L139.883 6.00635H147.722L150.662 6.98628L149.682 22.9008L154.257 26.585L161.112 28.5449V34.4245H157.522H150.1L144.556 33.1721V34.4245H137.923L136.943 29.5248L137.923 23.6452Z" stroke="white" stroke-width="3.5"/>
<path d="M88.0127 23.6452L87.0327 6.98628L89.9725 6.00635H97.812L100.752 6.98628L99.7719 22.9008L104.347 26.585L111.202 28.5449V34.4245H107.611H100.189L94.6458 33.1721V34.4245H88.0127L87.0327 29.5248L88.0127 23.6452Z" stroke="white" stroke-width="3.5"/>
<path d="M83.625 20.125L92.375 29.75L111.625 11.375" stroke="#333333" stroke-width="3.5"/>
<path d="M138.013 23.6452L137.033 6.98628L139.973 6.00635H147.812L150.752 6.98628L149.772 22.9008L154.347 26.585L161.202 28.5449V34.4245H157.611H150.189L144.646 33.1721V34.4245H138.013L137.033 29.5248L138.013 23.6452Z" stroke="white" stroke-width="3.5"/>
<path d="M133.625 20.125L142.375 29.75L161.625 11.375" stroke="#333333" stroke-width="3.5"/>
</svg>
