<svg width="129" height="32" viewBox="0 0 129 32" fill="none" xmlns="http://www.w3.org/2000/svg">
<path d="M8.50968 18.0153L7.76306 5.32279L10.0029 4.57617H15.9759L18.2157 5.32279L17.4691 17.4481L20.9548 20.2551L26.1774 21.7484V26.2281H23.442H17.7872L13.5635 25.2739V26.2281H8.50968L7.76306 22.495L8.50968 18.0153Z" stroke="white" stroke-width="2.66667"/>
<path d="M5.16663 15.3332L11.8333 22.6665L26.5 8.6665" stroke="#59AF9B" stroke-width="2.66667"/>
<path d="M72.5097 18.0153L71.7631 5.32279L74.0029 4.57617H79.9759L82.2157 5.32279L81.4691 17.4481L84.9548 20.2551L90.1774 21.7484V26.2281H87.442H81.7872L77.5635 25.2739V26.2281H72.5097L71.7631 22.495L72.5097 18.0153Z" stroke="white" stroke-width="2.66667"/>
<path d="M69.1666 15.3332L75.8333 22.6665L90.5 8.6665" stroke="#59AF9B" stroke-width="2.66667"/>
<path d="M48.5 9.77783V22.2223" stroke="white" stroke-width="1.55556"/>
<path d="M42.2777 16L54.7222 16" stroke="white" stroke-width="1.55556"/>
<path d="M104.51 18.0153L103.763 5.32279L106.003 4.57617H111.976L114.216 5.32279L113.469 17.4481L116.955 20.2551L122.177 21.7484V26.2281H119.442H113.787L109.563 25.2739V26.2281H104.51L103.763 22.495L104.51 18.0153Z" stroke="white" stroke-width="2.66667"/>
<path d="M101.167 15.3332L107.833 22.6665L122.5 8.6665" stroke="#59AF9B" stroke-width="2.66667"/>
</svg>
