<svg width="24" height="24" viewBox="0 0 24 24" fill="none" xmlns="http://www.w3.org/2000/svg">
<path fill-rule="evenodd" clip-rule="evenodd" d="M18 6L3 6L3 21L18 21L18 6ZM1 4L1 23L20 23L20 4L1 4Z" fill="white"/>
<path fill-rule="evenodd" clip-rule="evenodd" d="M6 3L21 3L21 18H20V20H23L23 1L4 1L4 4L6 4V3Z" fill="white"/>
<path fill-rule="evenodd" clip-rule="evenodd" d="M6.87237 13.3695L4.14404 16.0978L7.99594 19.9497L13.947 13.9987L11.7577 11.8093L10.4737 13.0933L11.3791 13.9987L7.99595 17.3818L6.71198 16.0978L8.15634 14.6535L6.87237 13.3695Z" fill="white"/>
<path fill-rule="evenodd" clip-rule="evenodd" d="M14.1628 13.6999L17 10.8627L13.1481 7.0108L7.19703 12.9619L9.35083 15.1157L10.6348 13.8317L9.76497 12.9619L13.1481 9.57873L14.4321 10.8627L12.8788 12.416L14.1628 13.6999Z" fill="white"/>
</svg>
