<svg width="128" height="32" viewBox="0 0 128 32" fill="none" xmlns="http://www.w3.org/2000/svg">
<path d="M8.00968 18.0153L7.26306 5.32279L9.50291 4.57617H15.4759L17.7157 5.32279L16.9691 17.4481L20.4548 20.2551L25.6774 21.7484V26.2281H22.942H17.2872L13.0635 25.2739V26.2281H8.00968L7.26306 22.495L8.00968 18.0153Z" stroke="#DE3137" stroke-width="2.66667"/>
<path d="M72.0097 18.0153L71.2631 5.32279L73.5029 4.57617H79.4759L81.7157 5.32279L80.9691 17.4481L84.4548 20.2551L89.6774 21.7484V26.2281H86.942H81.2872L77.0635 25.2739V26.2281H72.0097L71.2631 22.495L72.0097 18.0153Z" stroke="#DE3137" stroke-width="2.66667"/>
<path d="M48 9.77783V22.2223" stroke="#DE3137" stroke-width="1.55556"/>
<path d="M41.7777 16L54.2222 16" stroke="#DE3137" stroke-width="1.55556"/>
<path d="M104.01 18.0153L103.263 5.32279L105.503 4.57617H111.476L113.716 5.32279L112.969 17.4481L116.455 20.2551L121.677 21.7484V26.2281H118.942H113.287L109.063 25.2739V26.2281H104.01L103.263 22.495L104.01 18.0153Z" stroke="#DE3137" stroke-width="2.66667"/>
</svg>
