<svg width="33" height="32" viewBox="0 0 33 32" fill="none" xmlns="http://www.w3.org/2000/svg">
<path fill-rule="evenodd" clip-rule="evenodd" d="M16.8772 0C8.04064 0 0.877197 7.16344 0.877197 16C0.877197 24.8366 8.04064 32 16.8772 32C25.7138 32 32.8772 24.8366 32.8772 16C32.8772 7.16344 25.7138 0 16.8772 0ZM13.3593 7.51854C14.2695 7.47712 14.5604 7.46698 16.8779 7.46698H16.8752C19.1935 7.46698 19.4833 7.47712 20.3935 7.51854C21.302 7.56014 21.9224 7.70396 22.4664 7.91499C23.0282 8.13277 23.5029 8.42433 23.9775 8.899C24.4522 9.37331 24.7438 9.84941 24.9624 10.4107C25.1722 10.9532 25.3162 11.5733 25.3589 12.4818C25.3998 13.392 25.4104 13.6829 25.4104 16.0004C25.4104 18.3179 25.3998 18.6081 25.3589 19.5183C25.3162 20.4264 25.1722 21.0467 24.9624 21.5894C24.7438 22.1505 24.4522 22.6266 23.9775 23.1009C23.5034 23.5756 23.028 23.8679 22.4669 24.0858C21.924 24.2969 21.3032 24.4407 20.3948 24.4823C19.4845 24.5237 19.1946 24.5338 16.8768 24.5338C14.5595 24.5338 14.2688 24.5237 13.3586 24.4823C12.4503 24.4407 11.83 24.2969 11.2871 24.0858C10.7262 23.8679 10.2501 23.5756 9.77597 23.1009C9.30148 22.6266 9.00992 22.1505 8.79179 21.5893C8.58094 21.0467 8.43712 20.4266 8.39534 19.5181C8.35409 18.6079 8.34378 18.3179 8.34378 16.0004C8.34378 13.6829 8.35445 13.3918 8.39516 12.4816C8.43605 11.5735 8.58005 10.9532 8.79161 10.4105C9.01028 9.84941 9.30184 9.37331 9.77651 8.899C10.2508 8.42451 10.7269 8.13295 11.2882 7.91499C11.8308 7.70396 12.4508 7.56014 13.3593 7.51854Z" fill="#C9C9C9"/>
<path fill-rule="evenodd" clip-rule="evenodd" d="M16.1124 9.00482C16.2611 9.00459 16.421 9.00466 16.5935 9.00474L16.878 9.00482C19.1564 9.00482 19.4264 9.013 20.3262 9.05389C21.1582 9.09193 21.6097 9.23095 21.9105 9.34776C22.3088 9.50242 22.5927 9.68732 22.8912 9.98599C23.1898 10.2847 23.3747 10.5691 23.5298 10.9673C23.6466 11.2678 23.7858 11.7193 23.8236 12.5513C23.8645 13.4509 23.8734 13.7211 23.8734 15.9985C23.8734 18.2759 23.8645 18.5461 23.8236 19.4456C23.7856 20.2777 23.6466 20.7292 23.5298 21.0297C23.3751 21.4279 23.1898 21.7114 22.8912 22.0099C22.5925 22.3086 22.3089 22.4935 21.9105 22.6482C21.6101 22.7655 21.1582 22.9042 20.3262 22.9422C19.4266 22.9831 19.1564 22.992 16.878 22.992C14.5994 22.992 14.3293 22.9831 13.4297 22.9422C12.5977 22.9038 12.1462 22.7648 11.8452 22.648C11.447 22.4933 11.1625 22.3084 10.8638 22.0098C10.5652 21.7111 10.3803 21.4274 10.2253 21.029C10.1085 20.7285 9.96926 20.2769 9.93139 19.4449C9.8905 18.5454 9.88232 18.2751 9.88232 15.9964C9.88232 13.7176 9.8905 13.4488 9.93139 12.5492C9.96944 11.7172 10.1085 11.2656 10.2253 10.9648C10.3799 10.5666 10.5652 10.2822 10.8638 9.9835C11.1625 9.68483 11.447 9.49994 11.8452 9.34491C12.146 9.22758 12.5977 9.08891 13.4297 9.05069C14.2169 9.01513 14.522 9.00446 16.1124 9.00269V9.00482ZM21.433 10.4218C20.8676 10.4218 20.409 10.8799 20.409 11.4455C20.409 12.0108 20.8676 12.4695 21.433 12.4695C21.9983 12.4695 22.457 12.0108 22.457 11.4455C22.457 10.8801 21.9983 10.4215 21.433 10.4215V10.4218ZM12.4956 16C12.4956 13.58 14.4576 11.6179 16.8776 11.6178C19.2978 11.6178 21.2594 13.5799 21.2594 16C21.2594 18.4202 19.2979 20.3814 16.8778 20.3814C14.4577 20.3814 12.4956 18.4202 12.4956 16Z" fill="#C9C9C9"/>
<path d="M16.8779 13.1555C18.4488 13.1555 19.7224 14.429 19.7224 16C19.7224 17.5709 18.4488 18.8445 16.8779 18.8445C15.3069 18.8445 14.0334 17.5709 14.0334 16C14.0334 14.429 15.3069 13.1555 16.8779 13.1555Z" fill="#C9C9C9"/>
</svg>
