<svg width="33" height="32" viewBox="0 0 33 32" fill="none" xmlns="http://www.w3.org/2000/svg">
<path fill-rule="evenodd" clip-rule="evenodd" d="M16.8772 32C8.04064 32 0.877197 24.8366 0.877197 16C0.877197 7.16344 8.04064 0 16.8772 0C25.7138 0 32.8772 7.16344 32.8772 16C32.8772 24.8366 25.7138 32 16.8772 32ZM17.1002 15.1025C18.4103 15.1025 24.7802 11.5204 24.7802 11.5204L24.7905 10.8804C24.7905 10.1739 24.217 9.60044 23.5085 9.60044H10.6919C9.98405 9.60044 9.41061 10.1739 9.41061 10.8804V11.4507C9.41061 11.4507 15.8503 15.1025 17.1002 15.1025ZM9.42085 13.4402C9.42021 13.4402 15.8503 16.8622 17.1002 16.8622C18.4705 16.8622 24.7802 13.4402 24.7802 13.4402L24.7905 21.1202C24.7905 21.8267 24.217 22.4002 23.5085 22.4002H10.6919C9.98469 22.4002 9.41061 21.8267 9.41061 21.1202L9.42085 13.4402Z" fill="#C9C9C9"/>
</svg>
