<svg width="33" height="32" viewBox="0 0 33 32" fill="none" xmlns="http://www.w3.org/2000/svg">
<path fill-rule="evenodd" clip-rule="evenodd" d="M16.8772 0C8.04064 0 0.877197 7.16344 0.877197 16C0.877197 24.8366 8.04064 32 16.8772 32C25.7138 32 32.8772 24.8366 32.8772 16C32.8772 7.16344 25.7138 0 16.8772 0ZM14.8238 23.9632C14.5019 25.1827 13.6403 26.7061 13.0521 27.6561C12.7056 27.5535 12.3647 27.438 12.0299 27.3101C11.9054 26.1827 11.7993 24.4824 12.0863 23.2659C12.3481 22.1543 13.7836 16.1838 13.7836 16.1838C13.7836 16.1838 13.3507 15.3299 13.3507 14.0684C13.3507 12.0861 14.5158 10.6074 15.9701 10.6074C17.2037 10.6074 17.8008 11.5202 17.8008 12.615C17.8008 13.3959 17.4784 14.4236 17.1388 15.5057C16.9467 16.1178 16.7492 16.7473 16.6015 17.3594C16.261 18.7792 17.3252 19.9345 18.7453 19.9345C21.3185 19.9345 23.2964 17.2634 23.2964 13.4082C23.2964 9.99602 20.807 7.61118 17.2499 7.61118C13.1317 7.61118 10.7141 10.6529 10.7141 13.7956C10.7141 15.02 11.1915 16.3337 11.7903 17.0478C11.9084 17.1893 11.9255 17.3122 11.8912 17.4571C11.8261 17.7247 11.713 18.1761 11.6221 18.5392L11.622 18.5394L11.622 18.5396C11.5602 18.7865 11.5086 18.9925 11.4892 19.0722C11.4259 19.3333 11.2787 19.3889 11.0033 19.2642C9.19651 18.4356 8.06729 15.8318 8.06729 13.7434C8.06729 9.24823 11.3848 5.11854 17.6315 5.11854C22.6531 5.11854 26.5557 8.64191 26.5557 13.3493C26.5557 18.2604 23.4093 22.2133 19.0447 22.2133C17.5767 22.2133 16.1977 21.4621 15.7255 20.5762C15.7255 20.5762 15 23.2962 14.8238 23.9632Z" fill="#C9C9C9"/>
</svg>
