<svg width="33" height="32" viewBox="0 0 33 32" fill="none" xmlns="http://www.w3.org/2000/svg">
<path fill-rule="evenodd" clip-rule="evenodd" d="M16.8772 0C8.04064 0 0.877197 7.16344 0.877197 16C0.877197 24.8366 8.04064 32 16.8772 32C25.7138 32 32.8772 24.8366 32.8772 16C32.8772 7.16344 25.7138 0 16.8772 0ZM16.4316 13.5591L16.398 13.0054C16.2973 11.5705 17.1814 10.2599 18.5804 9.75142C19.0952 9.57064 19.9681 9.54804 20.5389 9.70622C20.7627 9.77401 21.188 9.99999 21.4902 10.2034L22.0386 10.5762L22.6429 10.3841C22.9787 10.2825 23.4264 10.113 23.6278 9.99999C23.8181 9.8983 23.9859 9.8418 23.9859 9.8757C23.9859 10.0678 23.5719 10.7231 23.2249 11.0847C22.7549 11.5931 22.8892 11.6383 23.8405 11.2993C24.4112 11.1073 24.4224 11.1073 24.3105 11.3219C24.2434 11.4349 23.8964 11.8304 23.5271 12.1919C22.9004 12.8134 22.8668 12.8812 22.8668 13.4009C22.8668 14.2031 22.4863 15.8753 22.1057 16.7905C21.4007 18.5079 19.8898 20.2818 18.3789 21.1744C16.2525 22.4285 13.421 22.7449 11.0372 22.0105C10.2426 21.7619 8.8772 21.1292 8.8772 21.0162C8.8772 20.9823 9.29129 20.9371 9.79491 20.9258C10.8469 20.9032 11.8989 20.6095 12.7943 20.0897L13.3986 19.7282L12.7047 19.4909C11.7199 19.1519 10.8357 18.3723 10.6119 17.6379C10.5448 17.4006 10.5671 17.3893 11.1939 17.3893L11.843 17.378L11.2946 17.1182C10.6455 16.7905 10.0523 16.2369 9.76134 15.6719C9.5487 15.2652 9.2801 14.237 9.35844 14.1579C9.38082 14.124 9.61585 14.1918 9.88445 14.2822C10.6567 14.5647 10.7574 14.4969 10.3097 14.0223C9.47036 13.1636 9.21295 11.8869 9.61585 10.6779L9.80611 10.1356L10.5448 10.87C12.0556 12.3501 13.8351 13.2314 15.872 13.4913L16.4316 13.5591Z" fill="#C9C9C9"/>
</svg>
